<mxfile host="app.diagrams.net" agent="Mozilla/5.0 (Windows NT 10.0; Win64; x64) AppleWebKit/537.36 (KHTML, like Gecko) Chrome/137.0.0.0 Safari/537.36" version="27.1.4">
  <diagram name="PÃ¡gina-1" id="NsbY3Jozb2LcnTB6moKm">
    <mxGraphModel dx="1650" dy="497" grid="0" gridSize="10" guides="1" tooltips="1" connect="1" arrows="1" fold="1" page="0" pageScale="1" pageWidth="827" pageHeight="1169" math="0" shadow="0">
      <root>
        <mxCell id="0" />
        <mxCell id="1" parent="0" />
        <mxCell id="DIN5iSnJz-HfGFqmL-08-11" style="edgeStyle=orthogonalEdgeStyle;rounded=0;orthogonalLoop=1;jettySize=auto;html=1;exitX=1;exitY=0.5;exitDx=0;exitDy=0;entryX=0;entryY=0.5;entryDx=0;entryDy=0;endArrow=none;startFill=0;shadow=1;" edge="1" parent="1" source="DIN5iSnJz-HfGFqmL-08-1" target="DIN5iSnJz-HfGFqmL-08-3">
          <mxGeometry relative="1" as="geometry" />
        </mxCell>
        <mxCell id="DIN5iSnJz-HfGFqmL-08-1" value="cupon" style="rounded=0;whiteSpace=wrap;html=1;shadow=1;" vertex="1" parent="1">
          <mxGeometry x="-235" y="217" width="91" height="36" as="geometry" />
        </mxCell>
        <mxCell id="DIN5iSnJz-HfGFqmL-08-2" value="cliente" style="rounded=0;whiteSpace=wrap;html=1;shadow=1;" vertex="1" parent="1">
          <mxGeometry x="48" y="217" width="91" height="36" as="geometry" />
        </mxCell>
        <mxCell id="DIN5iSnJz-HfGFqmL-08-12" value="" style="edgeStyle=orthogonalEdgeStyle;rounded=0;orthogonalLoop=1;jettySize=auto;html=1;endArrow=none;startFill=0;shadow=1;" edge="1" parent="1" source="DIN5iSnJz-HfGFqmL-08-3" target="DIN5iSnJz-HfGFqmL-08-2">
          <mxGeometry relative="1" as="geometry" />
        </mxCell>
        <mxCell id="DIN5iSnJz-HfGFqmL-08-3" value="compra" style="rhombus;whiteSpace=wrap;html=1;shadow=1;" vertex="1" parent="1">
          <mxGeometry x="-94" y="206" width="93" height="58" as="geometry" />
        </mxCell>
        <mxCell id="DIN5iSnJz-HfGFqmL-08-5" style="edgeStyle=orthogonalEdgeStyle;rounded=0;orthogonalLoop=1;jettySize=auto;html=1;entryX=0.25;entryY=0;entryDx=0;entryDy=0;endArrow=none;startFill=0;shadow=1;" edge="1" parent="1" source="DIN5iSnJz-HfGFqmL-08-4" target="DIN5iSnJz-HfGFqmL-08-1">
          <mxGeometry relative="1" as="geometry" />
        </mxCell>
        <mxCell id="DIN5iSnJz-HfGFqmL-08-6" style="edgeStyle=orthogonalEdgeStyle;rounded=0;orthogonalLoop=1;jettySize=auto;html=1;exitX=0.5;exitY=1;exitDx=0;exitDy=0;entryX=0;entryY=0.5;entryDx=0;entryDy=0;endArrow=none;startFill=0;shadow=1;" edge="1" parent="1" source="DIN5iSnJz-HfGFqmL-08-4" target="DIN5iSnJz-HfGFqmL-08-1">
          <mxGeometry relative="1" as="geometry" />
        </mxCell>
        <mxCell id="DIN5iSnJz-HfGFqmL-08-4" value="es_Supercupon" style="rhombus;whiteSpace=wrap;html=1;shadow=1;" vertex="1" parent="1">
          <mxGeometry x="-351" y="125" width="111" height="73" as="geometry" />
        </mxCell>
        <mxCell id="DIN5iSnJz-HfGFqmL-08-7" value="(1,1)" style="text;html=1;align=center;verticalAlign=middle;resizable=0;points=[];autosize=1;strokeColor=none;fillColor=none;shadow=1;" vertex="1" parent="1">
          <mxGeometry x="-281" y="213" width="43" height="26" as="geometry" />
        </mxCell>
        <mxCell id="DIN5iSnJz-HfGFqmL-08-8" value="(0,1)" style="text;html=1;align=center;verticalAlign=middle;resizable=0;points=[];autosize=1;strokeColor=none;fillColor=none;shadow=1;" vertex="1" parent="1">
          <mxGeometry x="-253" y="178" width="43" height="26" as="geometry" />
        </mxCell>
        <mxCell id="DIN5iSnJz-HfGFqmL-08-9" value="Tiene asociado" style="text;html=1;align=center;verticalAlign=middle;resizable=0;points=[];autosize=1;strokeColor=none;fillColor=none;shadow=1;" vertex="1" parent="1">
          <mxGeometry x="-274" y="128" width="99" height="26" as="geometry" />
        </mxCell>
        <mxCell id="DIN5iSnJz-HfGFqmL-08-10" value="Se asocia" style="text;html=1;align=center;verticalAlign=middle;resizable=0;points=[];autosize=1;strokeColor=none;fillColor=none;shadow=1;" vertex="1" parent="1">
          <mxGeometry x="-334" y="233" width="71" height="26" as="geometry" />
        </mxCell>
        <mxCell id="DIN5iSnJz-HfGFqmL-08-13" value="(1,n)" style="text;html=1;align=center;verticalAlign=middle;resizable=0;points=[];autosize=1;strokeColor=none;fillColor=none;shadow=1;" vertex="1" parent="1">
          <mxGeometry x="-148" y="233" width="43" height="26" as="geometry" />
        </mxCell>
        <mxCell id="DIN5iSnJz-HfGFqmL-08-14" value="(0,n)" style="text;html=1;align=center;verticalAlign=middle;resizable=0;points=[];autosize=1;strokeColor=none;fillColor=none;shadow=1;" vertex="1" parent="1">
          <mxGeometry x="8" y="233" width="43" height="26" as="geometry" />
        </mxCell>
        <mxCell id="DIN5iSnJz-HfGFqmL-08-21" style="edgeStyle=orthogonalEdgeStyle;rounded=0;orthogonalLoop=1;jettySize=auto;html=1;endArrow=none;startFill=0;shadow=1;" edge="1" parent="1" source="DIN5iSnJz-HfGFqmL-08-15" target="DIN5iSnJz-HfGFqmL-08-17">
          <mxGeometry relative="1" as="geometry" />
        </mxCell>
        <mxCell id="DIN5iSnJz-HfGFqmL-08-22" value="" style="edgeStyle=orthogonalEdgeStyle;rounded=0;orthogonalLoop=1;jettySize=auto;html=1;endArrow=none;startFill=0;shadow=1;" edge="1" parent="1" source="DIN5iSnJz-HfGFqmL-08-15" target="DIN5iSnJz-HfGFqmL-08-1">
          <mxGeometry relative="1" as="geometry" />
        </mxCell>
        <mxCell id="DIN5iSnJz-HfGFqmL-08-15" value="asociado" style="rhombus;whiteSpace=wrap;html=1;shadow=1;" vertex="1" parent="1">
          <mxGeometry x="-236" y="302" width="93" height="58" as="geometry" />
        </mxCell>
        <mxCell id="DIN5iSnJz-HfGFqmL-08-19" style="edgeStyle=orthogonalEdgeStyle;rounded=0;orthogonalLoop=1;jettySize=auto;html=1;entryX=0.5;entryY=0;entryDx=0;entryDy=0;endArrow=none;startFill=0;shadow=1;" edge="1" parent="1" source="DIN5iSnJz-HfGFqmL-08-16" target="DIN5iSnJz-HfGFqmL-08-18">
          <mxGeometry relative="1" as="geometry" />
        </mxCell>
        <mxCell id="DIN5iSnJz-HfGFqmL-08-16" value="ofrecido" style="rhombus;whiteSpace=wrap;html=1;shadow=1;" vertex="1" parent="1">
          <mxGeometry x="47" y="302" width="93" height="58" as="geometry" />
        </mxCell>
        <mxCell id="DIN5iSnJz-HfGFqmL-08-20" style="edgeStyle=orthogonalEdgeStyle;rounded=0;orthogonalLoop=1;jettySize=auto;html=1;exitX=1;exitY=0.5;exitDx=0;exitDy=0;entryX=0;entryY=0.5;entryDx=0;entryDy=0;endArrow=none;startFill=0;shadow=1;" edge="1" parent="1" source="DIN5iSnJz-HfGFqmL-08-17" target="DIN5iSnJz-HfGFqmL-08-16">
          <mxGeometry relative="1" as="geometry" />
        </mxCell>
        <mxCell id="DIN5iSnJz-HfGFqmL-08-17" value="producto" style="rounded=0;whiteSpace=wrap;html=1;shadow=1;" vertex="1" parent="1">
          <mxGeometry x="-92" y="313" width="91" height="36" as="geometry" />
        </mxCell>
        <mxCell id="DIN5iSnJz-HfGFqmL-08-18" value="proveedor" style="rounded=0;whiteSpace=wrap;html=1;shadow=1;" vertex="1" parent="1">
          <mxGeometry x="48" y="411" width="91" height="36" as="geometry" />
        </mxCell>
        <mxCell id="DIN5iSnJz-HfGFqmL-08-23" value="(1,1)" style="text;html=1;align=center;verticalAlign=middle;resizable=0;points=[];autosize=1;strokeColor=none;fillColor=none;shadow=1;" vertex="1" parent="1">
          <mxGeometry x="-227" y="253" width="43" height="26" as="geometry" />
        </mxCell>
        <mxCell id="DIN5iSnJz-HfGFqmL-08-24" value="(1,1)" style="text;html=1;align=center;verticalAlign=middle;resizable=0;points=[];autosize=1;strokeColor=none;fillColor=none;shadow=1;" vertex="1" parent="1">
          <mxGeometry x="-148" y="304" width="43" height="26" as="geometry" />
        </mxCell>
        <mxCell id="DIN5iSnJz-HfGFqmL-08-25" value="(1,n)" style="text;html=1;align=center;verticalAlign=middle;resizable=0;points=[];autosize=1;strokeColor=none;fillColor=none;shadow=1;" vertex="1" parent="1">
          <mxGeometry x="-1" y="304" width="43" height="26" as="geometry" />
        </mxCell>
        <mxCell id="DIN5iSnJz-HfGFqmL-08-27" value="(n,m)" style="text;html=1;align=center;verticalAlign=middle;resizable=0;points=[];autosize=1;strokeColor=none;fillColor=none;shadow=1;" vertex="1" parent="1">
          <mxGeometry x="91" y="385" width="46" height="26" as="geometry" />
        </mxCell>
        <mxCell id="DIN5iSnJz-HfGFqmL-08-28" value="&lt;u&gt;CUIT&lt;/u&gt;" style="ellipse;whiteSpace=wrap;html=1;shadow=1;" vertex="1" parent="1">
          <mxGeometry x="-7" y="468" width="66" height="25" as="geometry" />
        </mxCell>
        <mxCell id="DIN5iSnJz-HfGFqmL-08-29" value="razon_social" style="ellipse;whiteSpace=wrap;html=1;" vertex="1" parent="1">
          <mxGeometry x="69" y="488.75" width="77" height="31" as="geometry" />
        </mxCell>
        <mxCell id="DIN5iSnJz-HfGFqmL-08-36" value="" style="group;shadow=1;" vertex="1" connectable="0" parent="1">
          <mxGeometry x="149" y="450.75" width="90" height="38" as="geometry" />
        </mxCell>
        <mxCell id="DIN5iSnJz-HfGFqmL-08-33" value="" style="ellipse;whiteSpace=wrap;html=1;shadow=1;" vertex="1" parent="DIN5iSnJz-HfGFqmL-08-36">
          <mxGeometry width="90" height="38" as="geometry" />
        </mxCell>
        <mxCell id="DIN5iSnJz-HfGFqmL-08-34" value="telefono" style="ellipse;whiteSpace=wrap;html=1;shadow=1;" vertex="1" parent="DIN5iSnJz-HfGFqmL-08-36">
          <mxGeometry x="6.5" y="3.5" width="77" height="31" as="geometry" />
        </mxCell>
        <mxCell id="DIN5iSnJz-HfGFqmL-08-38" value="dimensiones" style="ellipse;whiteSpace=wrap;html=1;shadow=1;" vertex="1" parent="1">
          <mxGeometry x="-157" y="368" width="77" height="31" as="geometry" />
        </mxCell>
        <mxCell id="DIN5iSnJz-HfGFqmL-08-39" value="&lt;u&gt;cod_prod&lt;/u&gt;" style="ellipse;whiteSpace=wrap;html=1;shadow=1;" vertex="1" parent="1">
          <mxGeometry x="-29" y="360" width="77" height="31" as="geometry" />
        </mxCell>
        <mxCell id="DIN5iSnJz-HfGFqmL-08-40" value="precio_venta" style="ellipse;whiteSpace=wrap;html=1;shadow=1;" vertex="1" parent="1">
          <mxGeometry x="-80" y="391" width="77" height="31" as="geometry" />
        </mxCell>
        <mxCell id="DIN5iSnJz-HfGFqmL-08-41" value="peso" style="ellipse;whiteSpace=wrap;html=1;shadow=1;" vertex="1" parent="1">
          <mxGeometry x="-227" y="383" width="50" height="20.5" as="geometry" />
        </mxCell>
        <mxCell id="DIN5iSnJz-HfGFqmL-08-42" value="ancho" style="ellipse;whiteSpace=wrap;html=1;shadow=1;" vertex="1" parent="1">
          <mxGeometry x="-162" y="442" width="49" height="22" as="geometry" />
        </mxCell>
        <mxCell id="DIN5iSnJz-HfGFqmL-08-43" value="alto" style="ellipse;whiteSpace=wrap;html=1;shadow=1;" vertex="1" parent="1">
          <mxGeometry x="-105" y="433.25" width="31" height="17.5" as="geometry" />
        </mxCell>
        <mxCell id="DIN5iSnJz-HfGFqmL-08-44" value="profundidad" style="ellipse;whiteSpace=wrap;html=1;shadow=1;" vertex="1" parent="1">
          <mxGeometry x="-228.5" y="416" width="78" height="26" as="geometry" />
        </mxCell>
        <mxCell id="DIN5iSnJz-HfGFqmL-08-46" value="cod_area&lt;span style=&quot;color: rgba(0, 0, 0, 0); font-family: monospace; font-size: 0px; text-align: start; text-wrap-mode: nowrap;&quot;&gt;%3CmxGraphModel%3E%3Croot%3E%3CmxCell%20id%3D%220%22%2F%3E%3CmxCell%20id%3D%221%22%20parent%3D%220%22%2F%3E%3CmxCell%20id%3D%222%22%20value%3D%22razon_social%22%20style%3D%22ellipse%3BwhiteSpace%3Dwrap%3Bhtml%3D1%3B%22%20vertex%3D%221%22%20parent%3D%221%22%3E%3CmxGeometry%20x%3D%2299%22%20y%3D%22522%22%20width%3D%2277%22%20height%3D%2231%22%20as%3D%22geometry%22%2F%3E%3C%2FmxCell%3E%3C%2Froot%3E%3C%2FmxGraphModel%3E&lt;/span&gt;" style="ellipse;whiteSpace=wrap;html=1;shadow=1;" vertex="1" parent="1">
          <mxGeometry x="98" y="89" width="77" height="31" as="geometry" />
        </mxCell>
        <mxCell id="DIN5iSnJz-HfGFqmL-08-47" value="numero" style="ellipse;whiteSpace=wrap;html=1;shadow=1;" vertex="1" parent="1">
          <mxGeometry x="180" y="92" width="77" height="31" as="geometry" />
        </mxCell>
        <mxCell id="DIN5iSnJz-HfGFqmL-08-48" value="" style="group;shadow=1;" vertex="1" connectable="0" parent="1">
          <mxGeometry x="124" y="135" width="90" height="38" as="geometry" />
        </mxCell>
        <mxCell id="DIN5iSnJz-HfGFqmL-08-49" value="" style="ellipse;whiteSpace=wrap;html=1;shadow=1;" vertex="1" parent="DIN5iSnJz-HfGFqmL-08-48">
          <mxGeometry width="90" height="38" as="geometry" />
        </mxCell>
        <mxCell id="DIN5iSnJz-HfGFqmL-08-50" value="telefono" style="ellipse;whiteSpace=wrap;html=1;shadow=1;" vertex="1" parent="DIN5iSnJz-HfGFqmL-08-48">
          <mxGeometry x="6.5" y="3.5" width="77" height="31" as="geometry" />
        </mxCell>
        <mxCell id="DIN5iSnJz-HfGFqmL-08-51" value="numero" style="ellipse;whiteSpace=wrap;html=1;shadow=1;" vertex="1" parent="1">
          <mxGeometry x="38" y="162" width="77" height="31" as="geometry" />
        </mxCell>
        <mxCell id="DIN5iSnJz-HfGFqmL-08-52" value="&lt;u&gt;dni&lt;/u&gt;" style="ellipse;whiteSpace=wrap;html=1;shadow=1;" vertex="1" parent="1">
          <mxGeometry x="193.5" y="198" width="50" height="26" as="geometry" />
        </mxCell>
        <mxCell id="DIN5iSnJz-HfGFqmL-08-53" value="email" style="ellipse;whiteSpace=wrap;html=1;shadow=1;" vertex="1" parent="1">
          <mxGeometry x="162" y="242" width="77" height="31" as="geometry" />
        </mxCell>
        <mxCell id="DIN5iSnJz-HfGFqmL-08-54" value="hora" style="ellipse;whiteSpace=wrap;html=1;shadow=1;" vertex="1" parent="1">
          <mxGeometry x="-29" y="181.5" width="45" height="19" as="geometry" />
        </mxCell>
        <mxCell id="DIN5iSnJz-HfGFqmL-08-55" value="fecha" style="ellipse;whiteSpace=wrap;html=1;shadow=1;" vertex="1" parent="1">
          <mxGeometry x="-112" y="181.5" width="45" height="19" as="geometry" />
        </mxCell>
        <mxCell id="DIN5iSnJz-HfGFqmL-08-56" value="forma_pago" style="ellipse;whiteSpace=wrap;html=1;shadow=1;" vertex="1" parent="1">
          <mxGeometry x="-86.5" y="143" width="80" height="27" as="geometry" />
        </mxCell>
        <mxCell id="DIN5iSnJz-HfGFqmL-08-57" value="&lt;u&gt;numero&lt;/u&gt;" style="ellipse;whiteSpace=wrap;html=1;shadow=1;" vertex="1" parent="1">
          <mxGeometry x="-206" y="153" width="58" height="22" as="geometry" />
        </mxCell>
        <mxCell id="DIN5iSnJz-HfGFqmL-08-58" value="hora_vto" style="ellipse;whiteSpace=wrap;html=1;shadow=1;" vertex="1" parent="1">
          <mxGeometry x="-175" y="181.5" width="56" height="25.5" as="geometry" />
        </mxCell>
        <mxCell id="DIN5iSnJz-HfGFqmL-08-59" value="importe" style="ellipse;whiteSpace=wrap;html=1;shadow=1;" vertex="1" parent="1">
          <mxGeometry x="-281" y="292" width="53" height="20" as="geometry" />
        </mxCell>
        <mxCell id="DIN5iSnJz-HfGFqmL-08-60" value="fecha" style="ellipse;whiteSpace=wrap;html=1;shadow=1;" vertex="1" parent="1">
          <mxGeometry x="-326" y="273" width="45" height="19" as="geometry" />
        </mxCell>
        <mxCell id="DIN5iSnJz-HfGFqmL-08-61" style="edgeStyle=orthogonalEdgeStyle;rounded=0;orthogonalLoop=1;jettySize=auto;html=1;exitX=0.5;exitY=1;exitDx=0;exitDy=0;shadow=1;" edge="1" parent="1" source="DIN5iSnJz-HfGFqmL-08-60" target="DIN5iSnJz-HfGFqmL-08-60">
          <mxGeometry relative="1" as="geometry" />
        </mxCell>
        <mxCell id="DIN5iSnJz-HfGFqmL-08-62" value="" style="endArrow=none;html=1;rounded=0;entryX=0.5;entryY=1;entryDx=0;entryDy=0;exitX=0.5;exitY=0;exitDx=0;exitDy=0;shadow=1;" edge="1" parent="1" source="DIN5iSnJz-HfGFqmL-08-1" target="DIN5iSnJz-HfGFqmL-08-57">
          <mxGeometry width="50" height="50" relative="1" as="geometry">
            <mxPoint x="-200" y="226" as="sourcePoint" />
            <mxPoint x="-150" y="176" as="targetPoint" />
          </mxGeometry>
        </mxCell>
        <mxCell id="DIN5iSnJz-HfGFqmL-08-63" value="" style="endArrow=none;html=1;rounded=0;entryX=0;entryY=1;entryDx=0;entryDy=0;exitX=0.692;exitY=0.005;exitDx=0;exitDy=0;exitPerimeter=0;shadow=1;" edge="1" parent="1" source="DIN5iSnJz-HfGFqmL-08-1" target="DIN5iSnJz-HfGFqmL-08-58">
          <mxGeometry width="50" height="50" relative="1" as="geometry">
            <mxPoint x="-182" y="216" as="sourcePoint" />
            <mxPoint x="-132" y="166" as="targetPoint" />
          </mxGeometry>
        </mxCell>
        <mxCell id="DIN5iSnJz-HfGFqmL-08-64" value="" style="endArrow=none;html=1;rounded=0;entryX=0.136;entryY=0.998;entryDx=0;entryDy=0;entryPerimeter=0;exitX=0.702;exitY=0.036;exitDx=0;exitDy=0;exitPerimeter=0;shadow=1;" edge="1" parent="1" source="DIN5iSnJz-HfGFqmL-08-59" target="DIN5iSnJz-HfGFqmL-08-1">
          <mxGeometry width="50" height="50" relative="1" as="geometry">
            <mxPoint x="-253" y="298" as="sourcePoint" />
            <mxPoint x="-203" y="248" as="targetPoint" />
          </mxGeometry>
        </mxCell>
        <mxCell id="DIN5iSnJz-HfGFqmL-08-65" value="" style="endArrow=none;html=1;rounded=0;exitX=1;exitY=0;exitDx=0;exitDy=0;entryX=0;entryY=0.75;entryDx=0;entryDy=0;shadow=1;" edge="1" parent="1" source="DIN5iSnJz-HfGFqmL-08-60" target="DIN5iSnJz-HfGFqmL-08-1">
          <mxGeometry width="50" height="50" relative="1" as="geometry">
            <mxPoint x="-253" y="298" as="sourcePoint" />
            <mxPoint x="-203" y="248" as="targetPoint" />
          </mxGeometry>
        </mxCell>
        <mxCell id="DIN5iSnJz-HfGFqmL-08-66" value="" style="endArrow=none;html=1;rounded=0;entryX=1;entryY=1;entryDx=0;entryDy=0;exitX=0.355;exitY=0.14;exitDx=0;exitDy=0;exitPerimeter=0;shadow=1;" edge="1" parent="1" source="DIN5iSnJz-HfGFqmL-08-3" target="DIN5iSnJz-HfGFqmL-08-55">
          <mxGeometry width="50" height="50" relative="1" as="geometry">
            <mxPoint x="-70" y="263" as="sourcePoint" />
            <mxPoint x="-20" y="213" as="targetPoint" />
          </mxGeometry>
        </mxCell>
        <mxCell id="DIN5iSnJz-HfGFqmL-08-67" value="" style="endArrow=none;html=1;rounded=0;entryX=0.5;entryY=1;entryDx=0;entryDy=0;exitX=0.5;exitY=0;exitDx=0;exitDy=0;shadow=1;" edge="1" parent="1" source="DIN5iSnJz-HfGFqmL-08-3" target="DIN5iSnJz-HfGFqmL-08-56">
          <mxGeometry width="50" height="50" relative="1" as="geometry">
            <mxPoint x="-96" y="246" as="sourcePoint" />
            <mxPoint x="-46" y="196" as="targetPoint" />
          </mxGeometry>
        </mxCell>
        <mxCell id="DIN5iSnJz-HfGFqmL-08-68" value="" style="endArrow=none;html=1;rounded=0;entryX=0.295;entryY=0.953;entryDx=0;entryDy=0;entryPerimeter=0;exitX=1;exitY=0;exitDx=0;exitDy=0;shadow=1;" edge="1" parent="1" source="DIN5iSnJz-HfGFqmL-08-3" target="DIN5iSnJz-HfGFqmL-08-54">
          <mxGeometry width="50" height="50" relative="1" as="geometry">
            <mxPoint x="-65" y="247" as="sourcePoint" />
            <mxPoint x="-15" y="197" as="targetPoint" />
          </mxGeometry>
        </mxCell>
        <mxCell id="DIN5iSnJz-HfGFqmL-08-69" value="" style="endArrow=none;html=1;rounded=0;entryX=0.5;entryY=1;entryDx=0;entryDy=0;exitX=0.36;exitY=0.007;exitDx=0;exitDy=0;exitPerimeter=0;shadow=1;" edge="1" parent="1" source="DIN5iSnJz-HfGFqmL-08-2" target="DIN5iSnJz-HfGFqmL-08-51">
          <mxGeometry width="50" height="50" relative="1" as="geometry">
            <mxPoint x="89" y="260" as="sourcePoint" />
            <mxPoint x="139" y="210" as="targetPoint" />
          </mxGeometry>
        </mxCell>
        <mxCell id="DIN5iSnJz-HfGFqmL-08-70" value="" style="endArrow=none;html=1;rounded=0;entryX=0.307;entryY=0.959;entryDx=0;entryDy=0;entryPerimeter=0;exitX=0.884;exitY=0.001;exitDx=0;exitDy=0;exitPerimeter=0;shadow=1;" edge="1" parent="1" source="DIN5iSnJz-HfGFqmL-08-2" target="DIN5iSnJz-HfGFqmL-08-49">
          <mxGeometry width="50" height="50" relative="1" as="geometry">
            <mxPoint x="129" y="216" as="sourcePoint" />
            <mxPoint x="175" y="184" as="targetPoint" />
          </mxGeometry>
        </mxCell>
        <mxCell id="DIN5iSnJz-HfGFqmL-08-71" value="" style="endArrow=none;html=1;rounded=0;entryX=0.358;entryY=0.984;entryDx=0;entryDy=0;entryPerimeter=0;exitX=0.738;exitY=0.057;exitDx=0;exitDy=0;exitPerimeter=0;shadow=1;" edge="1" parent="1" source="DIN5iSnJz-HfGFqmL-08-49" target="DIN5iSnJz-HfGFqmL-08-47">
          <mxGeometry width="50" height="50" relative="1" as="geometry">
            <mxPoint x="152" y="182" as="sourcePoint" />
            <mxPoint x="202" y="132" as="targetPoint" />
          </mxGeometry>
        </mxCell>
        <mxCell id="DIN5iSnJz-HfGFqmL-08-72" value="" style="endArrow=none;html=1;rounded=0;entryX=0.5;entryY=1;entryDx=0;entryDy=0;exitX=0.254;exitY=0.075;exitDx=0;exitDy=0;exitPerimeter=0;shadow=1;" edge="1" parent="1" source="DIN5iSnJz-HfGFqmL-08-49" target="DIN5iSnJz-HfGFqmL-08-46">
          <mxGeometry width="50" height="50" relative="1" as="geometry">
            <mxPoint x="152" y="182" as="sourcePoint" />
            <mxPoint x="202" y="132" as="targetPoint" />
          </mxGeometry>
        </mxCell>
        <mxCell id="DIN5iSnJz-HfGFqmL-08-73" value="" style="endArrow=none;html=1;rounded=0;exitX=1;exitY=0.25;exitDx=0;exitDy=0;entryX=0;entryY=0.5;entryDx=0;entryDy=0;shadow=1;" edge="1" parent="1" source="DIN5iSnJz-HfGFqmL-08-2" target="DIN5iSnJz-HfGFqmL-08-52">
          <mxGeometry width="50" height="50" relative="1" as="geometry">
            <mxPoint x="143.5" y="228" as="sourcePoint" />
            <mxPoint x="193.5" y="178" as="targetPoint" />
          </mxGeometry>
        </mxCell>
        <mxCell id="DIN5iSnJz-HfGFqmL-08-74" value="" style="endArrow=none;html=1;rounded=0;exitX=1;exitY=0.75;exitDx=0;exitDy=0;entryX=0;entryY=0.5;entryDx=0;entryDy=0;shadow=1;" edge="1" parent="1" source="DIN5iSnJz-HfGFqmL-08-2" target="DIN5iSnJz-HfGFqmL-08-53">
          <mxGeometry width="50" height="50" relative="1" as="geometry">
            <mxPoint x="152" y="237" as="sourcePoint" />
            <mxPoint x="202" y="187" as="targetPoint" />
          </mxGeometry>
        </mxCell>
        <mxCell id="DIN5iSnJz-HfGFqmL-08-75" value="" style="endArrow=none;html=1;rounded=0;entryX=0;entryY=0.5;entryDx=0;entryDy=0;exitX=1;exitY=0.5;exitDx=0;exitDy=0;shadow=1;" edge="1" parent="1" source="DIN5iSnJz-HfGFqmL-08-41" target="DIN5iSnJz-HfGFqmL-08-38">
          <mxGeometry width="50" height="50" relative="1" as="geometry">
            <mxPoint x="-206" y="459" as="sourcePoint" />
            <mxPoint x="-156" y="409" as="targetPoint" />
          </mxGeometry>
        </mxCell>
        <mxCell id="DIN5iSnJz-HfGFqmL-08-76" value="" style="endArrow=none;html=1;rounded=0;entryX=0;entryY=1;entryDx=0;entryDy=0;exitX=1;exitY=0;exitDx=0;exitDy=0;shadow=1;" edge="1" parent="1" source="DIN5iSnJz-HfGFqmL-08-44" target="DIN5iSnJz-HfGFqmL-08-38">
          <mxGeometry width="50" height="50" relative="1" as="geometry">
            <mxPoint x="-206" y="459" as="sourcePoint" />
            <mxPoint x="-156" y="409" as="targetPoint" />
          </mxGeometry>
        </mxCell>
        <mxCell id="DIN5iSnJz-HfGFqmL-08-77" value="" style="endArrow=none;html=1;rounded=0;entryX=0.393;entryY=0.981;entryDx=0;entryDy=0;entryPerimeter=0;exitX=0.5;exitY=0;exitDx=0;exitDy=0;shadow=1;" edge="1" parent="1" source="DIN5iSnJz-HfGFqmL-08-42" target="DIN5iSnJz-HfGFqmL-08-38">
          <mxGeometry width="50" height="50" relative="1" as="geometry">
            <mxPoint x="-162" y="462" as="sourcePoint" />
            <mxPoint x="-112" y="412" as="targetPoint" />
          </mxGeometry>
        </mxCell>
        <mxCell id="DIN5iSnJz-HfGFqmL-08-78" value="" style="endArrow=none;html=1;rounded=0;entryX=0.691;entryY=0.964;entryDx=0;entryDy=0;entryPerimeter=0;exitX=0.5;exitY=0;exitDx=0;exitDy=0;shadow=1;" edge="1" parent="1" source="DIN5iSnJz-HfGFqmL-08-43" target="DIN5iSnJz-HfGFqmL-08-38">
          <mxGeometry width="50" height="50" relative="1" as="geometry">
            <mxPoint x="-125" y="447" as="sourcePoint" />
            <mxPoint x="-75" y="397" as="targetPoint" />
          </mxGeometry>
        </mxCell>
        <mxCell id="DIN5iSnJz-HfGFqmL-08-79" value="" style="endArrow=none;html=1;rounded=0;entryX=0.984;entryY=0.635;entryDx=0;entryDy=0;entryPerimeter=0;exitX=0.061;exitY=0.267;exitDx=0;exitDy=0;exitPerimeter=0;shadow=1;" edge="1" parent="1" source="DIN5iSnJz-HfGFqmL-08-40" target="DIN5iSnJz-HfGFqmL-08-38">
          <mxGeometry width="50" height="50" relative="1" as="geometry">
            <mxPoint x="-94" y="430" as="sourcePoint" />
            <mxPoint x="-44" y="380" as="targetPoint" />
          </mxGeometry>
        </mxCell>
        <mxCell id="DIN5iSnJz-HfGFqmL-08-80" value="" style="endArrow=none;html=1;rounded=0;exitX=1;exitY=0;exitDx=0;exitDy=0;entryX=0.25;entryY=1;entryDx=0;entryDy=0;shadow=1;" edge="1" parent="1" source="DIN5iSnJz-HfGFqmL-08-38" target="DIN5iSnJz-HfGFqmL-08-17">
          <mxGeometry width="50" height="50" relative="1" as="geometry">
            <mxPoint x="-96" y="405" as="sourcePoint" />
            <mxPoint x="-46" y="355" as="targetPoint" />
          </mxGeometry>
        </mxCell>
        <mxCell id="DIN5iSnJz-HfGFqmL-08-81" value="" style="endArrow=none;html=1;rounded=0;entryX=0.75;entryY=1;entryDx=0;entryDy=0;exitX=0;exitY=0;exitDx=0;exitDy=0;shadow=1;" edge="1" parent="1" source="DIN5iSnJz-HfGFqmL-08-39" target="DIN5iSnJz-HfGFqmL-08-17">
          <mxGeometry width="50" height="50" relative="1" as="geometry">
            <mxPoint x="-40" y="394" as="sourcePoint" />
            <mxPoint x="10" y="344" as="targetPoint" />
          </mxGeometry>
        </mxCell>
        <mxCell id="DIN5iSnJz-HfGFqmL-08-82" value="" style="endArrow=none;html=1;rounded=0;entryX=0.25;entryY=1;entryDx=0;entryDy=0;exitX=1;exitY=0;exitDx=0;exitDy=0;shadow=1;" edge="1" parent="1" source="DIN5iSnJz-HfGFqmL-08-28" target="DIN5iSnJz-HfGFqmL-08-18">
          <mxGeometry width="50" height="50" relative="1" as="geometry">
            <mxPoint x="94" y="470" as="sourcePoint" />
            <mxPoint x="144" y="420" as="targetPoint" />
          </mxGeometry>
        </mxCell>
        <mxCell id="DIN5iSnJz-HfGFqmL-08-83" value="" style="endArrow=none;html=1;rounded=0;exitX=0.5;exitY=0;exitDx=0;exitDy=0;entryX=0.5;entryY=1;entryDx=0;entryDy=0;shadow=1;" edge="1" parent="1" source="DIN5iSnJz-HfGFqmL-08-29" target="DIN5iSnJz-HfGFqmL-08-18">
          <mxGeometry width="50" height="50" relative="1" as="geometry">
            <mxPoint x="94" y="470" as="sourcePoint" />
            <mxPoint x="144" y="420" as="targetPoint" />
          </mxGeometry>
        </mxCell>
        <mxCell id="DIN5iSnJz-HfGFqmL-08-84" value="" style="endArrow=none;html=1;rounded=0;exitX=0;exitY=0;exitDx=0;exitDy=0;entryX=1;entryY=0.75;entryDx=0;entryDy=0;shadow=1;" edge="1" parent="1" source="DIN5iSnJz-HfGFqmL-08-33" target="DIN5iSnJz-HfGFqmL-08-18">
          <mxGeometry width="50" height="50" relative="1" as="geometry">
            <mxPoint x="94" y="470" as="sourcePoint" />
            <mxPoint x="144" y="420" as="targetPoint" />
          </mxGeometry>
        </mxCell>
      </root>
    </mxGraphModel>
  </diagram>
</mxfile>
